<svg class="animated" id="freepik_stories-spreadsheets" xmlns="http://www.w3.org/2000/svg" viewBox="0 0 500 500" version="1.1" xmlns:xlink="http://www.w3.org/1999/xlink" xmlns:svgjs="http://svgjs.com/svgjs"><style>svg#freepik_stories-spreadsheets:not(.animated) .animable {opacity: 0;}svg#freepik_stories-spreadsheets.animated #freepik--Spreadsheets--inject-2 {animation: 3s Infinite  linear floating;animation-delay: 0s;}            @keyframes floating {                0% {                    opacity: 1;                    transform: translateY(0px);                }                50% {                    transform: translateY(-10px);                }                100% {                    opacity: 1;                    transform: translateY(0px);                }            }        .animator-hidden { display: none; }</style><g id="freepik--background-complete--inject-2" class="animable animator-hidden" style="transform-origin: 250px 225.545px;"><rect y="382.4" width="500" height="0.25" style="fill: rgb(235, 235, 235); transform-origin: 250px 382.525px;" id="eltudouojg7aa" class="animable"></rect><rect x="394.36" y="393.85" width="50.9" height="0.25" style="fill: rgb(235, 235, 235); transform-origin: 419.81px 393.975px;" id="elhp6ks2lb99v" class="animable"></rect><rect x="52.46" y="390.89" width="47.21" height="0.25" style="fill: rgb(235, 235, 235); transform-origin: 76.065px 391.015px;" id="elsa615rmeko" class="animable"></rect><rect x="378.81" y="389.21" width="19.19" height="0.25" style="fill: rgb(235, 235, 235); transform-origin: 388.405px 389.335px;" id="elnq392j5ccn" class="animable"></rect><rect x="317.14" y="395.84" width="14.08" height="0.25" style="fill: rgb(235, 235, 235); transform-origin: 324.18px 395.965px;" id="el367nn2qrmo2" class="animable"></rect><rect x="272.79" y="395.84" width="35.44" height="0.25" style="fill: rgb(235, 235, 235); transform-origin: 290.51px 395.965px;" id="elnv6s49hf0cr" class="animable"></rect><rect x="195.22" y="391.62" width="56.99" height="0.25" style="fill: rgb(235, 235, 235); transform-origin: 223.715px 391.745px;" id="elrf4vtly31z" class="animable"></rect><path d="M237,337.8H43.91a5.71,5.71,0,0,1-5.7-5.71V60.66A5.71,5.71,0,0,1,43.91,55H237a5.71,5.71,0,0,1,5.71,5.71V332.09A5.71,5.71,0,0,1,237,337.8ZM43.91,55.2a5.46,5.46,0,0,0-5.45,5.46V332.09a5.46,5.46,0,0,0,5.45,5.46H237a5.47,5.47,0,0,0,5.46-5.46V60.66A5.47,5.47,0,0,0,237,55.2Z" style="fill: rgb(235, 235, 235); transform-origin: 140.46px 196.4px;" id="elubn5u0i85i" class="animable"></path><path d="M453.31,337.8H260.21a5.72,5.72,0,0,1-5.71-5.71V60.66A5.72,5.72,0,0,1,260.21,55h193.1A5.71,5.71,0,0,1,459,60.66V332.09A5.71,5.71,0,0,1,453.31,337.8ZM260.21,55.2a5.47,5.47,0,0,0-5.46,5.46V332.09a5.47,5.47,0,0,0,5.46,5.46h193.1a5.47,5.47,0,0,0,5.46-5.46V60.66a5.47,5.47,0,0,0-5.46-5.46Z" style="fill: rgb(235, 235, 235); transform-origin: 356.75px 196.4px;" id="ell2pa47nrn5" class="animable"></path><g id="el3vg8ico9ged"><rect x="77.01" y="81.58" width="140.63" height="124.81" style="fill: rgb(230, 230, 230); transform-origin: 147.325px 143.985px; transform: rotate(180deg);" class="animable" id="elw4ud9jba0uk"></rect></g><g id="el6o8magpj5ud"><rect x="73.88" y="81.58" width="140.63" height="124.81" style="fill: rgb(245, 245, 245); transform-origin: 144.195px 143.985px; transform: rotate(180deg);" class="animable" id="elok0y1a2q3r"></rect></g><g id="el7nvinnhxu7g"><rect x="88.1" y="79.27" width="112.21" height="129.41" style="fill: rgb(255, 255, 255); transform-origin: 144.205px 143.975px; transform: rotate(90deg);" class="animable" id="elpbrajhen56"></rect></g><g id="el1ijy5pssvv5"><rect x="24.57" y="142.8" width="112.21" height="2.36" style="fill: rgb(230, 230, 230); transform-origin: 80.675px 143.98px; transform: rotate(90deg);" class="animable" id="elljv5lvb5zbm"></rect></g><g id="elqgvfqq088pg"><rect x="76.2" y="180.89" width="135.99" height="8.46" style="fill: rgb(245, 245, 245); transform-origin: 144.195px 185.12px; transform: rotate(180deg);" class="animable" id="elvza27vu4hw"></rect></g><path d="M67.77,71.15h156a.86.86,0,0,1,.87.86h0a.87.87,0,0,1-.87.86h-156A.87.87,0,0,1,66.9,72h0A.86.86,0,0,1,67.77,71.15Z" style="fill: rgb(230, 230, 230); transform-origin: 145.77px 72.01px;" id="els2qppvqjjy" class="animable"></path><path d="M64.74,72a2.16,2.16,0,1,0,2.16-2.16A2.16,2.16,0,0,0,64.74,72Z" style="fill: rgb(230, 230, 230); transform-origin: 66.9px 72px;" id="ellnsam0jnx6o" class="animable"></path><path d="M216.47,76.85h0a1.18,1.18,0,0,0,1.17-1.17V73.17A1.17,1.17,0,0,0,216.47,72h0a1.16,1.16,0,0,0-1.16,1.16v2.51A1.17,1.17,0,0,0,216.47,76.85Z" style="fill: rgb(230, 230, 230); transform-origin: 216.475px 74.425px;" id="el8q4t208lgz" class="animable"></path><path d="M80.79,76.85h0A1.18,1.18,0,0,0,82,75.68V73.17A1.17,1.17,0,0,0,80.79,72h0a1.16,1.16,0,0,0-1.16,1.16v2.51A1.17,1.17,0,0,0,80.79,76.85Z" style="fill: rgb(230, 230, 230); transform-origin: 80.815px 74.4248px;" id="el9h1pp6u568r" class="animable"></path><g id="elnjla49mu7xp"><rect x="68.04" y="72.01" width="144.15" height="122.16" style="fill: rgb(224, 224, 224); opacity: 0.4; transform-origin: 140.115px 133.09px; transform: rotate(180deg);" class="animable" id="elrxki7t60czn"></rect></g><path d="M200.43,72a2.16,2.16,0,1,0,2.16-2.16A2.16,2.16,0,0,0,200.43,72Z" style="fill: rgb(230, 230, 230); transform-origin: 202.59px 72px;" id="elk9nnuni45c" class="animable"></path><g id="el2scxbquyx2d"><rect x="180.31" y="244.63" width="31.94" height="131.56" style="fill: rgb(240, 240, 240); transform-origin: 196.28px 310.41px; transform: rotate(180deg);" class="animable" id="el0u7sld7bjk1k"></rect></g><g id="ell7ctmwa57e"><rect x="83.47" y="376.19" width="122.66" height="6.21" style="fill: rgb(240, 240, 240); transform-origin: 144.8px 379.295px; transform: rotate(180deg);" class="animable" id="elg5d0qc2sm1"></rect></g><rect x="77.33" y="244.63" width="102.98" height="131.56" style="fill: rgb(245, 245, 245); transform-origin: 128.82px 310.41px;" id="elbs93ws1f05q" class="animable"></rect><rect x="89.89" y="294.34" width="77.86" height="32.13" style="fill: rgb(240, 240, 240); transform-origin: 128.82px 310.405px;" id="el6r6e1tzef53" class="animable"></rect><rect x="89.89" y="332.34" width="77.86" height="32.13" style="fill: rgb(240, 240, 240); transform-origin: 128.82px 348.405px;" id="elrktnkifuo1" class="animable"></rect><rect x="89.89" y="256.35" width="77.86" height="32.13" style="fill: rgb(240, 240, 240); transform-origin: 128.82px 272.415px;" id="elat3tb7t63sq" class="animable"></rect><g id="elt4fdkl4c2jk"><rect x="73.08" y="233.83" width="107.24" height="10.8" style="fill: rgb(240, 240, 240); transform-origin: 126.7px 239.23px; transform: rotate(180deg);" class="animable" id="elta5c7iye6k"></rect></g><rect x="180.31" y="233.83" width="36.4" height="10.8" style="fill: rgb(230, 230, 230); transform-origin: 198.51px 239.23px;" id="elur7xq47nsur" class="animable"></rect><rect x="119.04" y="216.51" width="17.02" height="17.31" style="fill: rgb(240, 240, 240); transform-origin: 127.55px 225.165px;" id="elxyutgmb57pp" class="animable"></rect><g id="elxjggq909q5"><rect x="88.85" y="216.51" width="30.19" height="17.31" style="fill: rgb(245, 245, 245); transform-origin: 103.945px 225.165px; transform: rotate(180deg);" class="animable" id="elwwgq82qgnkj"></rect></g><g id="elgitnjxuguq7"><rect x="88.67" y="219.12" width="47.38" height="1.4" style="fill: rgb(230, 230, 230); opacity: 0.7; mix-blend-mode: multiply; transform-origin: 112.36px 219.82px;" class="animable" id="elfprsgzxvwxi"></rect></g><rect x="119.04" y="215.67" width="17.95" height="4.05" style="fill: rgb(240, 240, 240); transform-origin: 128.015px 217.695px;" id="elojvzg2rel5j" class="animable"></rect><g id="elfin8bvb1e67"><rect x="87.91" y="215.67" width="31.13" height="4.05" style="fill: rgb(245, 245, 245); transform-origin: 103.475px 217.695px; transform: rotate(180deg);" class="animable" id="el0xkkrtt5c3ng"></rect></g><rect x="179.48" y="216.51" width="17.02" height="17.31" style="fill: rgb(240, 240, 240); transform-origin: 187.99px 225.165px;" id="el3rcl7qweuyf" class="animable"></rect><g id="elmlfgz937nvf"><rect x="149.29" y="216.51" width="30.19" height="17.31" style="fill: rgb(245, 245, 245); transform-origin: 164.385px 225.165px; transform: rotate(180deg);" class="animable" id="elwwr2vznw4qb"></rect></g><g id="elngb96f247dq"><rect x="149.11" y="219.12" width="47.38" height="1.4" style="fill: rgb(230, 230, 230); opacity: 0.7; mix-blend-mode: multiply; transform-origin: 172.8px 219.82px;" class="animable" id="elxamf27aumja"></rect></g><rect x="179.48" y="215.67" width="17.95" height="4.05" style="fill: rgb(240, 240, 240); transform-origin: 188.455px 217.695px;" id="el3663hx5sbie" class="animable"></rect><g id="eliaq5490n8uh"><rect x="148.35" y="215.67" width="31.13" height="4.05" style="fill: rgb(245, 245, 245); transform-origin: 163.915px 217.695px; transform: rotate(180deg);" class="animable" id="eljz9uaesxje"></rect></g><g id="el38fjoyz4b6a"><rect x="374.24" y="120.42" width="65.9" height="80.58" style="fill: rgb(240, 240, 240); transform-origin: 407.19px 160.71px; transform: rotate(180deg);" class="animable" id="elokaer0f5ypn"></rect></g><g id="elgch0k9gzf3c"><rect x="360.09" y="120.42" width="75.8" height="80.58" style="fill: rgb(245, 245, 245); transform-origin: 397.99px 160.71px; transform: rotate(180deg);" class="animable" id="elladcki7j88s"></rect></g><g id="elby0h064q0do"><rect x="364.05" y="129.16" width="67.88" height="63.1" style="fill: rgb(255, 255, 255); transform-origin: 397.99px 160.71px; transform: rotate(-90deg);" class="animable" id="elq2xudj923na"></rect></g><g id="el9lefk7a99h7"><rect x="380.51" y="144.45" width="34.98" height="32.51" rx="4.13" style="fill: rgb(245, 245, 245); transform-origin: 398px 160.705px; transform: rotate(-90deg);" class="animable" id="elw2x54z6v3x"></rect></g><g id="el1kis8ophdd7"><rect x="288.92" y="82.96" width="65.9" height="80.58" style="fill: rgb(240, 240, 240); transform-origin: 321.87px 123.25px; transform: rotate(180deg);" class="animable" id="el6nkuw09iktp"></rect></g><g id="elka17oo6qydb"><rect x="274.76" y="82.96" width="75.8" height="80.58" style="fill: rgb(245, 245, 245); transform-origin: 312.66px 123.25px; transform: rotate(180deg);" class="animable" id="elio0q68niq9f"></rect></g><g id="elkyaks9hdgwp"><rect x="278.72" y="91.7" width="67.88" height="63.1" style="fill: rgb(255, 255, 255); transform-origin: 312.66px 123.25px; transform: rotate(-90deg);" class="animable" id="elrjsj0g4t8q"></rect></g><g id="elar994dcn1jq"><rect x="295.18" y="106.99" width="34.98" height="32.51" rx="8.94" style="fill: rgb(245, 245, 245); transform-origin: 312.67px 123.245px; transform: rotate(-90deg);" class="animable" id="elgxql4de7xh"></rect></g><g id="eltyyiyenvp1m"><rect x="196.28" y="261.15" width="47.42" height="121.25" style="fill: rgb(230, 230, 230); transform-origin: 219.99px 321.775px; transform: rotate(180deg);" class="animable" id="elujtawmo6yz"></rect></g><polygon points="201.05 382.4 196.28 382.4 196.28 365.89 206.06 365.89 201.05 382.4" style="fill: rgb(240, 240, 240); transform-origin: 201.17px 374.145px;" id="ele3zyyd24pvu" class="animable"></polygon><g id="el7xwe7qlx9m6"><rect x="270.6" y="261.15" width="47.42" height="121.25" style="fill: rgb(230, 230, 230); transform-origin: 294.31px 321.775px; transform: rotate(180deg);" class="animable" id="elha8sx9nog9k"></rect></g><g id="el7h3g743ylh7"><rect x="196.28" y="261.15" width="78.48" height="111.12" style="fill: rgb(240, 240, 240); transform-origin: 235.52px 316.71px; transform: rotate(180deg);" class="animable" id="ell449q8xmqo"></rect></g><g id="eleox605s37vq"><rect x="199.98" y="266.07" width="71.08" height="30.47" style="fill: rgb(230, 230, 230); transform-origin: 235.52px 281.305px; transform: rotate(180deg);" class="animable" id="elv8l5hbtn5wi"></rect></g><path d="M228.56,275.54h10.72c4.65,0,9.1-3.76,12.3-10.39H216.26C219.46,271.78,223.91,275.54,228.56,275.54Z" style="fill: rgb(240, 240, 240); transform-origin: 233.92px 270.345px;" id="el75sgwo1lk16" class="animable"></path><polygon points="269.99 382.4 274.76 382.4 274.76 365.89 264.99 365.89 269.99 382.4" style="fill: rgb(240, 240, 240); transform-origin: 269.875px 374.145px;" id="el5559bxxwprj" class="animable"></polygon><g id="elnfh82oorl4a"><rect x="199.98" y="301.47" width="71.08" height="30.47" style="fill: rgb(230, 230, 230); transform-origin: 235.52px 316.705px; transform: rotate(180deg);" class="animable" id="elggx1qdr2l1m"></rect></g><path d="M228.56,310.94h10.72c4.65,0,9.1-3.76,12.3-10.4H216.26C219.46,307.18,223.91,310.94,228.56,310.94Z" style="fill: rgb(240, 240, 240); transform-origin: 233.92px 305.74px;" id="ell578a91ihl" class="animable"></path><g id="el39unwc0rndm"><rect x="199.98" y="336.87" width="71.08" height="30.47" style="fill: rgb(230, 230, 230); transform-origin: 235.52px 352.105px; transform: rotate(180deg);" class="animable" id="elnfsxmeqbuk"></rect></g><path d="M228.56,346.34h10.72c4.65,0,9.1-3.76,12.3-10.4H216.26C219.46,342.58,223.91,346.34,228.56,346.34Z" style="fill: rgb(240, 240, 240); transform-origin: 233.92px 341.14px;" id="elnok6n7brl1" class="animable"></path><path d="M383.45,246.82l-8.53,29.95c.26,64.74-2.66,68.47-2.69,79.6h9C382.08,302.19,387.4,306.8,383.45,246.82Z" style="fill: rgb(240, 240, 240); transform-origin: 378.561px 301.595px;" id="elu2rz0c44j1q" class="animable"></path><path d="M381.8,382.4h0a35.6,35.6,0,0,0,34.79-28,75.22,75.22,0,0,1,3.63-12.53l.27-.65H343.12l.27.65A74.25,74.25,0,0,1,347,354.36,35.61,35.61,0,0,0,381.8,382.4Z" style="fill: rgb(250, 250, 250); transform-origin: 381.805px 361.81px;" id="elbp3lkj1a7bf" class="animable"></path><polygon points="338.11 345.1 425.5 345.1 428 326.17 335.61 326.17 338.11 345.1" style="fill: rgb(240, 240, 240); transform-origin: 381.805px 335.635px;" id="elwq5m135sh4a" class="animable"></polygon><path d="M378.58,332.54c-3.23-62.39,37.94-66,54.25-44.9C441.49,310.29,380.44,368.42,378.58,332.54Z" style="fill: rgb(240, 240, 240); transform-origin: 406.036px 309.99px;" id="elgapeczi1hbc" class="animable"></path><path d="M378.64,306.73c-6.59-46.05,23.44-54.75,36.86-41.43C423.39,280.93,382.43,333.22,378.64,306.73Z" style="fill: rgb(240, 240, 240); transform-origin: 397.107px 286.861px;" id="elojxnwxxr8io" class="animable"></path><path d="M380.56,273.17c-6.83-29.06,11.87-36.33,21.2-28.58C407.69,254.13,384.49,289.88,380.56,273.17Z" style="fill: rgb(240, 240, 240); transform-origin: 390.908px 259.627px;" id="el9pov9sksrtw" class="animable"></path><path d="M374.36,293.88c11.84-35.34-10.57-46.52-23.06-38C342.82,267.1,367.55,314.2,374.36,293.88Z" style="fill: rgb(240, 240, 240); transform-origin: 363.629px 276.034px;" id="el0us1z5p3rh2b" class="animable"></path><path d="M381.47,275.87c17.21-33.05-3.18-47.59-16.86-41.09C354.5,244.49,371.57,294.88,381.47,275.87Z" style="fill: rgb(240, 240, 240); transform-origin: 374.788px 256.691px;" id="elbwissuttna8" class="animable"></path><path d="M377.11,328.59c8.48-54.47-27.33-61.33-43.55-44.32C323.91,303.38,372.23,359.91,377.11,328.59Z" style="fill: rgb(240, 240, 240); transform-origin: 355.34px 306.949px;" id="elqomm5xbpgw" class="animable"></path></g><g id="freepik--Shadow--inject-2" class="animable" style="transform-origin: 250px 416.24px;"><ellipse id="freepik--path--inject-2" cx="250" cy="416.24" rx="193.89" ry="11.32" style="fill: rgb(245, 245, 245); transform-origin: 250px 416.24px;" class="animable"></ellipse></g><g id="freepik--Character--inject-2" class="animable animator-active" style="transform-origin: 281.57px 262.601px;"><polygon points="272.06 407.62 264.34 407.62 264.01 389.76 271.73 389.76 272.06 407.62" style="fill: rgb(255, 181, 115); transform-origin: 268.035px 398.69px;" id="elyrto90t4nmi" class="animable"></polygon><polygon points="318.37 407.62 310.66 407.62 307.22 389.76 314.93 389.76 318.37 407.62" style="fill: rgb(255, 181, 115); transform-origin: 312.795px 398.69px;" id="elm3zboda9bbc" class="animable"></polygon><path d="M310.13,406.73h8.67a.64.64,0,0,1,.64.53l1.36,6.85a1.18,1.18,0,0,1-1.16,1.38c-3-.06-4.49-.23-8.3-.23-2.35,0-7.19.24-10.42.24s-3.59-3.2-2.25-3.49c6-1.3,8.25-3.1,10.2-4.81A2,2,0,0,1,310.13,406.73Z" style="fill: rgb(38, 50, 56); transform-origin: 309.377px 411.115px;" id="elus3dvc5ubym" class="animable"></path><path d="M264.41,406.73h8.43a.65.65,0,0,1,.64.53l1.36,6.85a1.16,1.16,0,0,1-1.14,1.38c-3-.06-7.43-.23-11.25-.23-4.47,0-8.33.24-13.57.24-3.16,0-4-3.2-2.63-3.49,6.07-1.32,11-1.46,16.29-4.68A3.66,3.66,0,0,1,264.41,406.73Z" style="fill: rgb(38, 50, 56); transform-origin: 260.239px 411.115px;" id="elrm5sp2fjwqc" class="animable"></path><path d="M264.19,165.51,256,158.13s-18,28.36-21.62,29.94c-5,2.14-21.61,16.49-27.08,19.81-.35,1.26-.26,4.73.37,5.74,9.1-.78,31.11-14.16,34.73-17.53C250.6,188.4,264.19,165.51,264.19,165.51Z" style="fill: rgb(255, 181, 115); transform-origin: 235.644px 185.875px;" id="elnd7a5iyp0gg" class="animable"></path><path d="M269.9,159.68c1.21,7.28-15.59,25.12-15.59,25.12l-13.46-11a97.73,97.73,0,0,1,12.21-16.33C260,150.42,268.58,151.7,269.9,159.68Z" style="fill: rgb(38, 50, 56); transform-origin: 255.406px 168.832px;" id="eltqmoibbs68" class="animable"></path><g id="elvkgmpr0508r"><path d="M250.83,182l3.48,2.82s3.77-4,7.6-9c4.49-6.52,7.95-12.42,8.06-15.15v-.07C268.26,159.35,258.52,169.92,250.83,182Z" style="opacity: 0.2; transform-origin: 260.4px 172.66px;" class="animable" id="elyst23bxgh4"></path></g><path d="M208.41,207.31l-7.94,1.47-.44,8.54a34,34,0,0,0,9.56-4.12Z" style="fill: rgb(255, 181, 115); transform-origin: 204.81px 212.315px;" id="ellyt9ov71ct" class="animable"></path><polygon points="192 211.65 193.17 216.04 200.03 217.32 200.47 208.78 192 211.65" style="fill: rgb(255, 181, 115); transform-origin: 196.235px 213.05px;" id="el5olc4hkfg96" class="animable"></polygon><g id="el1wunzk84p6k"><polygon points="264.01 389.76 264.18 398.97 271.9 398.97 271.73 389.76 264.01 389.76" style="opacity: 0.2; transform-origin: 267.955px 394.365px;" class="animable" id="el8kowibcs908"></polygon></g><g id="elk4o709ceqp"><polygon points="314.94 389.76 307.22 389.76 309 398.97 316.71 398.97 314.94 389.76" style="opacity: 0.2; transform-origin: 311.965px 394.365px;" class="animable" id="elkd8wa28zatd"></polygon></g><polygon points="243.11 169.24 238.49 174.74 253.46 187.08 259.45 181.16 243.11 169.24" style="fill: #6D26F8; transform-origin: 248.97px 178.16px;" id="eldisbxdw8cpu" class="animable"></polygon><path d="M258.8,153.45s-9.68,23.3-2.09,66.68H298c.44-6.33-2.78-37.23,4.06-67.07a107.14,107.14,0,0,0-13.77-1.75,153.08,153.08,0,0,0-17.54,0A78.77,78.77,0,0,0,258.8,153.45Z" style="fill: rgb(38, 50, 56); transform-origin: 277.932px 185.594px;" id="elljx4oditawq" class="animable"></path><g id="elunjux21o8u"><path d="M292.88,160.42c-.8,4.92.46,16.67,4.8,30.25a197.86,197.86,0,0,1,3.7-34.64V156C298.67,155.69,293.66,155.82,292.88,160.42Z" style="opacity: 0.2; transform-origin: 297.017px 173.284px;" class="animable" id="elzmo1kq3ouai"></path></g><path d="M286.37,134.91c-1.25,5.64-2,12.64,1.89,16.4,0,0-2.41,5.73-12.9,5.73-9.58,0-4.64-5.73-4.64-5.73,6.33-1.5,6.19-9.28,5.2-13.67Z" style="fill: rgb(255, 181, 115); transform-origin: 278.853px 145.975px;" id="elhzmwx1xj3re" class="animable"></path><g id="eldxt5gor2wyh"><path d="M275.92,137.65a17,17,0,0,1-.27,9.26,10.08,10.08,0,0,0,2.83-.86c3.59-1.67,5.4-4.31,7.32-8.21.16-1,.35-2,.57-2.93Z" style="opacity: 0.2; transform-origin: 281.01px 140.91px;" class="animable" id="elf1kj8g3frz"></path></g><path d="M267.43,130.2a7.07,7.07,0,0,0,3,4.59c2.11,1.37,4-.37,4.06-2.79.08-2.17-.93-5.51-3.38-5.91A3.35,3.35,0,0,0,267.43,130.2Z" style="fill: rgb(255, 181, 115); transform-origin: 270.915px 130.668px;" id="el0h3mmdaqvw" class="animable"></path><g id="elefh14tlx15w"><path d="M267.43,130.2a7.07,7.07,0,0,0,3,4.59c2.11,1.37,4-.37,4.06-2.79.08-2.17-.93-5.51-3.38-5.91A3.35,3.35,0,0,0,267.43,130.2Z" style="opacity: 0.2; transform-origin: 270.915px 130.668px;" class="animable" id="elroq37erzij"></path></g><path d="M277.73,116.85l-5.08,16.7C266,121.62,273.47,111.48,277.73,116.85Z" style="fill: rgb(38, 50, 56); transform-origin: 273.867px 124.462px;" id="el2v54nkz5d42" class="animable"></path><path d="M291.79,130.22c-3.26,7-4.81,11.26-9.85,13.6-7.57,3.53-15.05-3-13.93-10.81,1-7,6.17-17.29,14.25-17.55A10.2,10.2,0,0,1,291.79,130.22Z" style="fill: rgb(255, 181, 115); transform-origin: 280.384px 130.127px;" id="el08yzsyr7bxvk" class="animable"></path><path d="M287.33,136.29c-4,.49-.7-9.65,2.77-12.39-4.65-.62-17.14-1.66-16.54-8.45.72-8.23,10-5.77,10-3.84,1.77,1.27,15.68.22,14.32,10.76C304.7,122.66,300.89,134.66,287.33,136.29Z" style="fill: rgb(38, 50, 56); transform-origin: 287.365px 123.005px;" id="elyh4258bwkwo" class="animable"></path><path d="M297.86,122.63h-.07a.27.27,0,0,1-.18-.33c1.54-5.12-.3-6.93-2.07-7.94a.28.28,0,0,1-.1-.36.27.27,0,0,1,.36-.1c2.84,1.62,3.58,4.34,2.31,8.56A.26.26,0,0,1,297.86,122.63Z" style="fill: rgb(38, 50, 56); transform-origin: 297.06px 118.249px;" id="elkrfc7q6opv" class="animable"></path><path d="M300.11,128.21a.24.24,0,0,1-.19-.08.26.26,0,0,1,0-.37c1.51-1.36,2.12-2.57,1.77-3.5s-1.89-1.63-3.85-1.63a.26.26,0,0,1-.26-.26.26.26,0,0,1,.26-.26c2.21,0,3.88.75,4.34,2,.31.8.22,2.16-1.91,4.08A.28.28,0,0,1,300.11,128.21Z" style="fill: rgb(38, 50, 56); transform-origin: 299.946px 125.162px;" id="elklxp3l3efz" class="animable"></path><path d="M292.09,138.5a7.4,7.4,0,0,1-5.4,1.44c-2.52-.35-2.71-2.86-1.11-4.71,1.43-1.67,4.48-3.5,6.57-2.21S294,137,292.09,138.5Z" style="fill: rgb(255, 181, 115); transform-origin: 289.087px 136.292px;" id="el4d79lyi9dan" class="animable"></path><path d="M256.71,220.13s-2.48,57.68-2.21,81.21c.27,24.46,6.85,95.85,6.85,95.85h13.07s2.41-70,3.58-94c1.27-26.2,5.83-83.07,5.83-83.07Z" style="fill: #6D26F8; transform-origin: 269.155px 308.655px;" id="elp49d15cqxf" class="animable"></path><g id="elyvyc4ood66l"><path d="M256.71,220.13s-2.48,57.68-2.21,81.21c.27,24.46,6.85,95.85,6.85,95.85h13.07s2.41-70,3.58-94c1.27-26.2,5.83-83.07,5.83-83.07Z" style="fill: rgb(255, 255, 255); opacity: 0.4; transform-origin: 269.155px 308.655px;" class="animable" id="el7iic4rxy9wf"></path></g><path d="M275.38,393.18c.06,0-.11,4.27-.11,4.27H260.21l-.51-4.79Z" style="fill: rgb(38, 50, 56); transform-origin: 267.546px 395.055px;" id="elw6g89yld5p" class="animable"></path><g id="ellhvnwkt2n5g"><path d="M274.38,235.4c-.45,28.62.85,46,4,60,.79-13.65,2.08-31.7,3.21-46.7Z" style="opacity: 0.2; transform-origin: 277.942px 265.4px;" class="animable" id="elwy2nqmgjngf"></path></g><path d="M271.35,220.13s7.31,59,11.57,81c4.67,24.19,22.52,96,22.52,96h14.13S308.43,327.31,306,303.37c-2.62-26-8-83.24-8-83.24Z" style="fill: #6D26F8; transform-origin: 295.46px 308.63px;" id="elun83cemk3pk" class="animable"></path><g id="el36y8p1o32n"><path d="M271.35,220.13s7.31,59,11.57,81c4.67,24.19,22.52,96,22.52,96h14.13S308.43,327.31,306,303.37c-2.62-26-8-83.24-8-83.24Z" style="fill: rgb(255, 255, 255); opacity: 0.4; transform-origin: 295.46px 308.63px;" class="animable" id="el74tt75b5z6"></path></g><path d="M319.66,393.51c.06,0,.61,3.94.61,3.94H304.74l-1.26-4.53Z" style="fill: rgb(38, 50, 56); transform-origin: 311.875px 395.185px;" id="elwesfrfq0lm" class="animable"></path><path d="M280.23,128.21c-.23.58-.72.94-1.1.8s-.5-.73-.27-1.31.72-1,1.1-.81S280.46,127.62,280.23,128.21Z" style="fill: rgb(38, 50, 56); transform-origin: 279.545px 127.942px;" id="el3voxkr3q8wm" class="animable"></path><path d="M273.69,125.77c-.23.58-.72.94-1.1.8s-.5-.73-.27-1.31.72-.94,1.1-.8S273.92,125.19,273.69,125.77Z" style="fill: rgb(38, 50, 56); transform-origin: 273.005px 125.515px;" id="el7fmlk0wj9jj" class="animable"></path><path d="M275.65,126.84a23.36,23.36,0,0,1-4.72,4,3.48,3.48,0,0,0,2.55,1.55Z" style="fill: rgb(237, 137, 62); transform-origin: 273.29px 129.615px;" id="elht1oi06cczu" class="animable"></path><path d="M274.53,134.59a.17.17,0,0,1-.1-.23.18.18,0,0,1,.24-.11,5,5,0,0,0,4.45-.42.18.18,0,0,1,.25,0,.19.19,0,0,1,0,.26A5.31,5.31,0,0,1,274.53,134.59Z" style="fill: rgb(38, 50, 56); transform-origin: 276.918px 134.367px;" id="eloldnk97jf6b" class="animable"></path><path d="M283,126.81a.34.34,0,0,1-.22-.23,2.82,2.82,0,0,0-1.73-2,.35.35,0,0,1-.23-.45.36.36,0,0,1,.45-.25,3.5,3.5,0,0,1,2.21,2.44.37.37,0,0,1-.25.46A.36.36,0,0,1,283,126.81Z" style="fill: rgb(38, 50, 56); transform-origin: 282.148px 125.341px;" id="eldn3z7iejvkk" class="animable"></path><path d="M271.67,122.34a.38.38,0,0,1-.12-.1.37.37,0,0,1,.05-.52,3.68,3.68,0,0,1,3.26-.81.36.36,0,0,1,.23.45.38.38,0,0,1-.46.25h0a2.91,2.91,0,0,0-2.57.67A.37.37,0,0,1,271.67,122.34Z" style="fill: rgb(38, 50, 56); transform-origin: 273.286px 121.592px;" id="el7ovtbndsy08" class="animable"></path><path d="M295.28,165.75,306,162.26s9.87,25.14,13.53,26.6c5,2,15.07,7.28,21.35,8.54.72,1.06,1.69,4.32,1.38,5.47-9,2.34-27.32-2.6-30.93-5.83C303.1,189.65,295.28,165.75,295.28,165.75Z" style="fill: rgb(255, 181, 115); transform-origin: 318.8px 182.869px;" id="elxrwgg5o4hcn" class="animable"></path><path d="M302,153.06c7.27,1.06,15,26.35,15,26.35l-15.54,8.66s-6.46-12-9.57-21C288.67,157.75,294.23,151.92,302,153.06Z" style="fill: rgb(38, 50, 56); transform-origin: 303.979px 170.494px;" id="ely9vd0xqudtm" class="animable"></path><polygon points="317.01 176.66 320.94 183.51 302.03 191.52 298.68 184.33 317.01 176.66" style="fill: #6D26F8; transform-origin: 309.81px 184.09px;" id="ell1b5aqgr89" class="animable"></polygon><path d="M307.55,408.08a2.28,2.28,0,0,1-1.48-.4,1.05,1.05,0,0,1-.35-1,.61.61,0,0,1,.32-.52c.86-.44,3.32,1.09,3.6,1.27a.18.18,0,0,1,.08.18.21.21,0,0,1-.15.15A9.11,9.11,0,0,1,307.55,408.08Zm-1.11-1.6a.6.6,0,0,0-.24,0c-.05,0-.1.07-.12.21a.73.73,0,0,0,.23.66c.42.36,1.42.41,2.74.14A7.28,7.28,0,0,0,306.44,406.48Z" style="fill: #6D26F8; transform-origin: 307.711px 407.084px;" id="el822lhbm8tj2" class="animable"></path><path d="M309.53,407.81l-.09,0c-.78-.43-2.29-2.12-2.1-3a.6.6,0,0,1,.59-.48,1,1,0,0,1,.78.24c.87.73,1,2.95,1,3.05a.2.2,0,0,1-.09.17A.17.17,0,0,1,309.53,407.81Zm-1.48-3.13H308c-.24,0-.26.14-.27.19-.11.51.84,1.78,1.62,2.39a4.35,4.35,0,0,0-.85-2.42A.63.63,0,0,0,308.05,404.68Z" style="fill: #6D26F8; transform-origin: 308.517px 406.066px;" id="elk7zwd0lxi6c" class="animable"></path><path d="M261.17,408.08a2.84,2.84,0,0,1-1.86-.48,1,1,0,0,1-.32-.89.6.6,0,0,1,.31-.48c.95-.53,4,1,4.36,1.23a.17.17,0,0,1,.09.19.17.17,0,0,1-.15.15A13.1,13.1,0,0,1,261.17,408.08Zm-1.35-1.6a.7.7,0,0,0-.35.07.23.23,0,0,0-.12.19.68.68,0,0,0,.21.59c.46.42,1.73.49,3.44.21A9.76,9.76,0,0,0,259.82,406.48Z" style="fill: #6D26F8; transform-origin: 261.367px 407.106px;" id="el378eyrikxqy" class="animable"></path><path d="M263.57,407.81l-.08,0c-.92-.42-2.72-2.09-2.56-3,0-.2.19-.46.7-.51a1.32,1.32,0,0,1,1,.31c1,.81,1.12,2.89,1.13,3a.21.21,0,0,1-.08.16A.25.25,0,0,1,263.57,407.81Zm-1.81-3.13h-.11c-.33,0-.35.17-.36.21-.1.52,1.13,1.83,2.06,2.4a4.13,4.13,0,0,0-1-2.37A.94.94,0,0,0,261.76,404.68Z" style="fill: #6D26F8; transform-origin: 262.34px 406.051px;" id="elgxm028e2wc8" class="animable"></path><path d="M341.57,203l7.35.36-3.91-8s-6.43-.09-7.48,4.85Z" style="fill: rgb(255, 181, 115); transform-origin: 343.225px 199.36px;" id="elt7d9c9kn6en" class="animable"></path><polygon points="354.86 199.51 350.97 192.45 345.01 195.38 348.92 203.38 354.86 199.51" style="fill: rgb(255, 181, 115); transform-origin: 349.935px 197.915px;" id="elpp4morjqnk" class="animable"></polygon><g id="elrnlpnduque"><rect x="343.09" y="145.67" width="10.79" height="43" style="fill: #6D26F8; transform-origin: 348.485px 167.17px; transform: rotate(86.43deg);" class="animable" id="el4y1p1x1f7xl"></rect></g><g id="eler4kxl3k766"><rect x="343.95" y="159.58" width="10.79" height="43" style="fill: rgb(255, 255, 255); opacity: 0.5; transform-origin: 349.345px 181.08px; transform: rotate(86.43deg);" class="animable" id="el46v7qibdjqt"></rect></g><g id="elz2nqtt9xdm"><rect x="343.95" y="159.58" width="10.79" height="43" style="fill: #6D26F8; opacity: 0.5; transform-origin: 349.345px 181.08px; transform: rotate(86.43deg);" class="animable" id="elu6hbbkwy46b"></rect></g></g><g id="freepik--Spreadsheets--inject-2" class="animable" style="transform-origin: 232.95px 280.615px;"><path d="M333.78,355.56,125.19,338.85a9.94,9.94,0,0,1-9.09-10.67l9.06-113.12A9.93,9.93,0,0,1,135.83,206l208.59,16.7a10,10,0,0,1,9.09,10.67l-9.06,113.13A10,10,0,0,1,333.78,355.56Z" style="fill: #6D26F8; transform-origin: 234.803px 280.778px;" id="elpqsoyejuk5f" class="animable"></path><g id="elss8dzrg5rz"><path d="M333.78,355.56,125.19,338.85a9.94,9.94,0,0,1-9.09-10.67l9.06-113.12A9.93,9.93,0,0,1,135.83,206l208.59,16.7a10,10,0,0,1,9.09,10.67l-9.06,113.13A10,10,0,0,1,333.78,355.56Z" style="opacity: 0.4; transform-origin: 234.803px 280.778px;" class="animable" id="elgwumppzid"></path></g><path d="M330.07,355.26l-208.59-16.7a10,10,0,0,1-9.09-10.67l9.06-113.13a10,10,0,0,1,10.67-9.09l208.59,16.7A10,10,0,0,1,349.8,233l-9.06,113.13A10,10,0,0,1,330.07,355.26Z" style="fill: #6D26F8; transform-origin: 231.094px 280.465px;" id="elrfmjl2xhdyq" class="animable"></path><path d="M338.25,341.45,115.6,323.62a1.65,1.65,0,0,1-1.52-1.77l7.77-97a1.65,1.65,0,0,1,1.77-1.52l222.66,17.83A1.66,1.66,0,0,1,347.8,243l-7.77,97A1.65,1.65,0,0,1,338.25,341.45Z" style="fill: rgb(255, 255, 255); transform-origin: 230.943px 282.391px;" id="elrpxqo6dnah" class="animable"></path><path d="M136.24,220.81a3.54,3.54,0,0,1-.46,0,5.67,5.67,0,1,1,.46,0Zm0-10.6a4.94,4.94,0,1,0,.39,0Z" style="fill: rgb(255, 255, 255); transform-origin: 136.01px 215.146px;" id="elalup84atlbk" class="animable"></path><path d="M152.64,222.12h-.46a6,6,0,1,1,.46,0Zm0-10.6a4.89,4.89,0,1,0,3.17,8.61,4.84,4.84,0,0,0,1.7-3.33h0a4.89,4.89,0,0,0-4.48-5.26Z" style="fill: rgb(255, 255, 255); transform-origin: 152.41px 216.122px;" id="elcbibuyrvhbp" class="animable"></path><path d="M169,223.44l-.46,0a5.64,5.64,0,1,1,.46,0Zm0-10.6a4.82,4.82,0,1,0,.39,0Z" style="fill: rgb(255, 255, 255); transform-origin: 168.77px 217.802px;" id="el3cgpp0hts4j" class="animable"></path><g id="elvk5rhdj0hhi"><rect x="173.35" y="228.48" width="10.79" height="43" style="fill: #6D26F8; transform-origin: 178.745px 249.98px; transform: rotate(94.58deg);" class="animable" id="el1zu5j6h84sq"></rect></g><g id="elhicg3phonpk"><rect x="267.9" y="250.03" width="10.79" height="43" style="fill: #6D26F8; transform-origin: 273.295px 271.53px; transform: rotate(94.58deg);" class="animable" id="el5688ejnmvqc"></rect></g><g id="elrbppea7g3nr"><rect x="218.95" y="260.1" width="10.79" height="43" style="fill: #6D26F8; opacity: 0.5; transform-origin: 224.345px 281.6px; transform: rotate(94.58deg);" class="animable" id="elhs01ja4s5ic"></rect></g><g id="elpwh8fp2tyin"><rect x="168.9" y="284.06" width="10.79" height="43" style="fill: #6D26F8; opacity: 0.5; transform-origin: 174.295px 305.56px; transform: rotate(94.58deg);" class="animable" id="ela6s1qv12d3"></rect></g><g id="elpg8yo2gb19k"><rect x="314.62" y="267.76" width="10.79" height="43" style="fill: #6D26F8; transform-origin: 320.015px 289.26px; transform: rotate(94.58deg);" class="animable" id="elsqvwinlx2qb"></rect></g><g id="elhpkfu7ur0bl"><rect x="313.51" y="281.66" width="10.79" height="43" style="fill: #6D26F8; opacity: 0.5; transform-origin: 318.905px 303.16px; transform: rotate(94.58deg);" class="animable" id="elphhykm2lmrl"></rect></g><g id="el3sx3pbef87a"><rect x="264.56" y="291.72" width="10.79" height="43" style="fill: #6D26F8; transform-origin: 269.955px 313.22px; transform: rotate(94.58deg);" class="animable" id="ell34c0gg7ex"></rect></g><path d="M346.7,256.68l0-.49-47.59-3.81,1.19-14.87-.49,0-1.19,14.87-47.34-3.79,1.19-14.87-.5,0-1.19,14.87-47.34-3.79,1.19-14.87-.49,0L203,244.68l-47.34-3.79L156.84,226l-.49,0-1.19,14.87-34.37-2.75,0,.49,34.37,2.75L154,254.75,119.68,252l0,.5L154,255.24l-1.07,13.4-34.37-2.75,0,.49,34.37,2.76-1.07,13.4-34.37-2.75,0,.49L151.78,283l-1.08,13.41-34.36-2.76,0,.5,34.37,2.75-1.08,13.4-34.37-2.75,0,.49,34.36,2.76-1.23,15.41.49,0,1.24-15.42,47.34,3.8-1.24,15.41.5,0,1.23-15.42,47.34,3.79L244,333.9l.49,0,1.23-15.42,47.34,3.79-1.23,15.42.49,0,1.24-15.42,47.58,3.81,0-.49-47.58-3.81,1.07-13.4,47.59,3.81,0-.5L294.7,308l1.07-13.4,47.59,3.81,0-.49-47.59-3.81,1.08-13.41,47.58,3.81,0-.49-47.58-3.81,1.07-13.4,47.59,3.81,0-.5L298,266.27l1.07-13.4ZM250.78,249l-1.07,13.41-47.34-3.79,1.07-13.41Zm-50.63,37.41,1.07-13.4,47.34,3.79-1.07,13.4Zm47.3,4.28-1.08,13.41L199,300.3l1.08-13.4Zm-46.19-18.18,1.07-13.4,47.34,3.79-1.07,13.4Zm-45.65-31.13L203,245.17l-1.07,13.41-47.34-3.79Zm-1.11,13.9,47.34,3.79-1.08,13.4-47.34-3.79Zm-1.12,13.9L200.72,273l-1.07,13.4-47.34-3.79Zm-1.11,13.89,47.34,3.79-1.07,13.41-47.34-3.79Zm-2.18,27.3,1.07-13.4,47.34,3.79-1.07,13.4Zm47.83,3.83L199,300.8l47.34,3.79L245.26,318Zm95.17,7.62L245.75,318l1.08-13.4,47.34,3.79Zm1.12-13.9-47.34-3.79,1.07-13.4,47.34,3.79ZM295.32,294,248,290.24l1.07-13.4,47.34,3.79Zm1.11-13.9-47.34-3.79,1.07-13.4,47.34,3.79Zm1.11-13.89-47.34-3.79L251.28,249l47.34,3.79Z" style="fill: rgb(224, 224, 224); transform-origin: 230.98px 281.845px;" id="elu6cwwddytgs" class="animable"></path></g><defs>     <filter id="active" height="200%">         <feMorphology in="SourceAlpha" result="DILATED" operator="dilate" radius="2"></feMorphology>                <feFlood flood-color="#32DFEC" flood-opacity="1" result="PINK"></feFlood>        <feComposite in="PINK" in2="DILATED" operator="in" result="OUTLINE"></feComposite>        <feMerge>            <feMergeNode in="OUTLINE"></feMergeNode>            <feMergeNode in="SourceGraphic"></feMergeNode>        </feMerge>    </filter>    <filter id="hover" height="200%">        <feMorphology in="SourceAlpha" result="DILATED" operator="dilate" radius="2"></feMorphology>                <feFlood flood-color="#ff0000" flood-opacity="0.5" result="PINK"></feFlood>        <feComposite in="PINK" in2="DILATED" operator="in" result="OUTLINE"></feComposite>        <feMerge>            <feMergeNode in="OUTLINE"></feMergeNode>            <feMergeNode in="SourceGraphic"></feMergeNode>        </feMerge>            <feColorMatrix type="matrix" values="0   0   0   0   0                0   1   0   0   0                0   0   0   0   0                0   0   0   1   0 "></feColorMatrix>    </filter></defs></svg>