<?xml version="1.0" standalone="no"?>
<svg xmlns:xlink="http://www.w3.org/1999/xlink" id="wave" style="transform:rotate(0deg); transition: 0.3s" viewBox="0 0 1440 490" version="1.1" xmlns="http://www.w3.org/2000/svg"><defs><linearGradient id="sw-gradient-0" x1="0" x2="0" y1="1" y2="0"><stop stop-color="rgba(101, 126, 212, 1)" offset="0%"/><stop stop-color="rgba(109, 38, 248, 1)" offset="100%"/></linearGradient></defs><path style="transform:translate(0, 0px); opacity:1" fill="url(#sw-gradient-0)" d="M0,49L60,81.7C120,114,240,180,360,204.2C480,229,600,212,720,171.5C840,131,960,65,1080,65.3C1200,65,1320,131,1440,179.7C1560,229,1680,261,1800,228.7C1920,196,2040,98,2160,122.5C2280,147,2400,294,2520,294C2640,294,2760,147,2880,106.2C3000,65,3120,131,3240,163.3C3360,196,3480,196,3600,204.2C3720,212,3840,229,3960,204.2C4080,180,4200,114,4320,122.5C4440,131,4560,212,4680,261.3C4800,310,4920,327,5040,294C5160,261,5280,180,5400,130.7C5520,82,5640,65,5760,65.3C5880,65,6000,82,6120,98C6240,114,6360,131,6480,114.3C6600,98,6720,49,6840,32.7C6960,16,7080,33,7200,57.2C7320,82,7440,114,7560,179.7C7680,245,7800,343,7920,392C8040,441,8160,441,8280,392C8400,343,8520,245,8580,196L8640,147L8640,490L8580,490C8520,490,8400,490,8280,490C8160,490,8040,490,7920,490C7800,490,7680,490,7560,490C7440,490,7320,490,7200,490C7080,490,6960,490,6840,490C6720,490,6600,490,6480,490C6360,490,6240,490,6120,490C6000,490,5880,490,5760,490C5640,490,5520,490,5400,490C5280,490,5160,490,5040,490C4920,490,4800,490,4680,490C4560,490,4440,490,4320,490C4200,490,4080,490,3960,490C3840,490,3720,490,3600,490C3480,490,3360,490,3240,490C3120,490,3000,490,2880,490C2760,490,2640,490,2520,490C2400,490,2280,490,2160,490C2040,490,1920,490,1800,490C1680,490,1560,490,1440,490C1320,490,1200,490,1080,490C960,490,840,490,720,490C600,490,480,490,360,490C240,490,120,490,60,490L0,490Z"/></svg>